<svg width="56" height="56" viewBox="0 0 56 56" fill="none" xmlns="http://www.w3.org/2000/svg">
<path d="M9.33334 49.0002C8.67223 49.0002 8.11767 48.7762 7.66967 48.3282C7.22167 47.8802 6.99845 47.3265 7.00001 46.6669V20.2419C7.00001 19.7364 7.14623 19.2985 7.43867 18.9282C7.73112 18.558 8.09045 18.2765 8.51668 18.0836L34.1833 8.22524C34.9611 7.91413 35.6806 7.99191 36.3417 8.45857C37.0028 8.92524 37.3333 9.56691 37.3333 10.3836V28.0002H39.6667C39.6667 26.7169 40.124 25.6179 41.0387 24.7032C41.9533 23.7886 43.0516 23.332 44.3333 23.3336C45.6167 23.3336 46.7157 23.7909 47.6303 24.7056C48.545 25.6202 49.0016 26.7185 49 28.0002V46.6669C49 47.328 48.776 47.8826 48.328 48.3306C47.88 48.7786 47.3262 49.0018 46.6667 49.0002H9.33334ZM11.6667 44.3336H21V30.3336C21 29.6725 21.224 29.1179 21.672 28.6699C22.12 28.2219 22.6738 27.9987 23.3333 28.0002H32.6667V13.7669L11.6667 21.8752V44.3336ZM25.6667 44.3336H32.6667V39.6669C32.6667 39.0058 32.8907 38.4512 33.3387 38.0032C33.7867 37.5552 34.3405 37.332 35 37.3336C35.6611 37.3336 36.2157 37.5576 36.6637 38.0056C37.1117 38.4536 37.3349 39.0074 37.3333 39.6669V44.3336H44.3333V32.6669H25.6667V44.3336Z" fill="#337589"/>
</svg>
