<svg width="56" height="56" viewBox="0 0 56 56" fill="none" xmlns="http://www.w3.org/2000/svg">
<path d="M51.3327 49H4.66602V44.3333H6.99935V9.33333C6.99935 8.71449 7.24518 8.121 7.68277 7.68342C8.12035 7.24583 8.71384 7 9.33268 7H41.9993C42.6182 7 43.2117 7.24583 43.6493 7.68342C44.0869 8.121 44.3327 8.71449 44.3327 9.33333V21H48.9993V44.3333H51.3327V49ZM39.666 44.3333H44.3327V25.6667H30.3327V44.3333H34.9993V30.3333H39.666V44.3333ZM39.666 21V11.6667H11.666V44.3333H25.666V21H39.666ZM16.3327 25.6667H20.9993V30.3333H16.3327V25.6667ZM16.3327 35H20.9993V39.6667H16.3327V35ZM16.3327 16.3333H20.9993V21H16.3327V16.3333Z" fill="#337589"/>
</svg>
