<svg width="56" height="56" viewBox="0 0 56 56" fill="none" xmlns="http://www.w3.org/2000/svg">
<path d="M4.66602 44.3332V30.3332C4.66602 29.2832 4.8799 28.3304 5.30768 27.4748C5.73546 26.6193 6.29935 25.8609 6.99935 25.1998V18.6665C6.99935 16.7221 7.6799 15.0693 9.04102 13.7082C10.4021 12.3471 12.0549 11.6665 13.9993 11.6665H23.3327C24.2271 11.6665 25.0632 11.8322 25.841 12.1635C26.6188 12.4948 27.3382 12.9514 27.9993 13.5332C28.6605 12.9498 29.3799 12.4933 30.1577 12.1635C30.9355 11.8337 31.7716 11.6681 32.666 11.6665H41.9993C43.9438 11.6665 45.5966 12.3471 46.9577 13.7082C48.3188 15.0693 48.9993 16.7221 48.9993 18.6665V25.1998C49.6993 25.8609 50.2632 26.6193 50.691 27.4748C51.1188 28.3304 51.3327 29.2832 51.3327 30.3332V44.3332H46.666V39.6665H9.33268V44.3332H4.66602ZM30.3327 23.3332H44.3327V18.6665C44.3327 18.0054 44.1087 17.4508 43.6607 17.0028C43.2127 16.5548 42.6589 16.3316 41.9993 16.3332H32.666C32.0049 16.3332 31.4503 16.5572 31.0023 17.0052C30.5543 17.4532 30.3311 18.0069 30.3327 18.6665V23.3332ZM11.666 23.3332H25.666V18.6665C25.666 18.0054 25.442 17.4508 24.994 17.0028C24.546 16.5548 23.9922 16.3316 23.3327 16.3332H13.9993C13.3382 16.3332 12.7837 16.5572 12.3357 17.0052C11.8877 17.4532 11.6645 18.0069 11.666 18.6665V23.3332ZM9.33268 34.9998H46.666V30.3332C46.666 29.6721 46.442 29.1175 45.994 28.6695C45.546 28.2215 44.9922 27.9983 44.3327 27.9998H11.666C11.0049 27.9998 10.4503 28.2238 10.0023 28.6718C9.55435 29.1198 9.33113 29.6736 9.33268 30.3332V34.9998Z" fill="#337589"/>
</svg>
