<svg width="56" height="56" viewBox="0 0 56 56" fill="none" xmlns="http://www.w3.org/2000/svg">
<path d="M52.5 44.6248H49.875V25.2654C49.8736 24.6549 49.7444 24.0515 49.4957 23.4939C49.2471 22.9363 48.8845 22.437 48.4312 22.0279L30.9312 6.1248C30.1283 5.38847 29.0785 4.97998 27.9891 4.97998C26.8996 4.97998 25.8498 5.38847 25.0469 6.1248L7.54688 22.0279C7.10078 22.4414 6.74439 22.9421 6.4998 23.499C6.25521 24.056 6.12764 24.6572 6.125 25.2654V44.6248H3.5C2.80381 44.6248 2.13613 44.9014 1.64384 45.3936C1.15156 45.8859 0.875 46.5536 0.875 47.2498C0.875 47.946 1.15156 48.6137 1.64384 49.1059C2.13613 49.5982 2.80381 49.8748 3.5 49.8748H52.5C53.1962 49.8748 53.8639 49.5982 54.3562 49.1059C54.8484 48.6137 55.125 47.946 55.125 47.2498C55.125 46.5536 54.8484 45.8859 54.3562 45.3936C53.8639 44.9014 53.1962 44.6248 52.5 44.6248ZM11.375 25.6592L28 10.5435L44.625 25.6592V44.6248H35.875V34.9998C35.8693 33.8412 35.4065 32.7318 34.5872 31.9126C33.768 31.0933 32.6586 30.6305 31.5 30.6248H24.5C23.3414 30.6305 22.232 31.0933 21.4128 31.9126C20.5935 32.7318 20.1308 33.8412 20.125 34.9998V44.6248H11.375V25.6592ZM30.625 44.6248H25.375V35.8748H30.625V44.6248Z" fill="#337589"/>
</svg>
