<svg width="56" height="56" viewBox="0 0 56 56" fill="none" xmlns="http://www.w3.org/2000/svg">
<path d="M28.0001 51.3335C27.339 51.3335 26.7845 51.1095 26.3365 50.6615C25.8885 50.2135 25.6652 49.6597 25.6668 49.0001V21.0001H8.3418C7.75846 21.0001 7.38902 20.7279 7.23346 20.1835C7.07791 19.639 7.23346 19.2112 7.70013 18.9001L25.3168 6.53346C26.1335 5.98902 27.0279 5.7168 28.0001 5.7168C28.9724 5.7168 29.8668 5.98902 30.6835 6.53346L48.3001 18.9001C48.7668 19.2112 48.9223 19.639 48.7668 20.1835C48.6112 20.7279 48.2418 21.0001 47.6585 21.0001H30.3335V49.0001C30.3335 49.6612 30.1095 50.2158 29.6615 50.6638C29.2135 51.1118 28.6597 51.335 28.0001 51.3335ZM28.0001 16.3335H36.5168H19.4835H28.0001ZM9.33346 51.3335C8.67235 51.3335 8.1178 51.1095 7.6698 50.6615C7.2218 50.2135 6.99857 49.6597 7.00013 49.0001V39.0835L5.5418 31.0918C5.42513 30.4307 5.5418 29.8474 5.8918 29.3418C6.2418 28.8362 6.74735 28.5251 7.40846 28.4085C8.03069 28.2918 8.60469 28.4186 9.13046 28.7888C9.65624 29.159 9.97669 29.6545 10.0918 30.2751L11.4335 37.3335H18.6668C19.3279 37.3335 19.8825 37.5575 20.3305 38.0055C20.7785 38.4535 21.0017 39.0072 21.0001 39.6668V49.0001C21.0001 49.6612 20.7761 50.2158 20.3281 50.6638C19.8801 51.1118 19.3264 51.335 18.6668 51.3335C18.0057 51.3335 17.4511 51.1095 17.0031 50.6615C16.5551 50.2135 16.3319 49.6597 16.3335 49.0001V42.0001H11.6668V49.0001C11.6668 49.6612 11.4428 50.2158 10.9948 50.6638C10.5468 51.1118 9.99302 51.335 9.33346 51.3335ZM37.3335 51.3335C36.6724 51.3335 36.1178 51.1095 35.6698 50.6615C35.2218 50.2135 34.9986 49.6597 35.0001 49.0001V39.6668C35.0001 39.0057 35.2241 38.4511 35.6721 38.0031C36.1201 37.5551 36.6739 37.3319 37.3335 37.3335H44.5668L45.9085 30.2751C46.0251 29.6529 46.3463 29.1567 46.8721 28.7865C47.3979 28.4162 47.9711 28.2902 48.5918 28.4085C49.2529 28.5251 49.7585 28.8362 50.1085 29.3418C50.4585 29.8474 50.5751 30.4307 50.4585 31.0918L49.0001 39.0835V49.0001C49.0001 49.6612 48.7761 50.2158 48.3281 50.6638C47.8801 51.1118 47.3263 51.335 46.6668 51.3335C46.0057 51.3335 45.4511 51.1095 45.0031 50.6615C44.5551 50.2135 44.3319 49.6597 44.3335 49.0001V42.0001H39.6668V49.0001C39.6668 49.6612 39.4428 50.2158 38.9948 50.6638C38.5468 51.1118 37.993 51.335 37.3335 51.3335ZM19.4835 16.3335H36.5168L28.0001 10.3835L19.4835 16.3335Z" fill="#337589"/>
</svg>
